<?xml version="1.0" standalone="no"?>
<!DOCTYPE svg PUBLIC "-//W3C//DTD SVG 20010904//EN"
 "http://www.w3.org/TR/2001/REC-SVG-20010904/DTD/svg10.dtd">
<svg version="1.0" xmlns="http://www.w3.org/2000/svg"
 width="600.000000pt" height="600.000000pt" viewBox="0 0 600.000000 600.000000"
 preserveAspectRatio="xMidYMid meet">
<metadata>
Created by potrace 1.11, written by Peter Selinger 2001-2013
</metadata>
<g transform="translate(0.000000,600.000000) scale(0.100000,-0.100000)"
fill="#000000" stroke="none">
<path d="M1260 4976 c0 -7 -7 -19 -15 -26 -13 -11 -15 -244 -13 -2014 l3
-2001 465 0 465 0 3 799 c1 570 5 803 13 813 9 11 149 13 785 13 478 0 782 -4
798 -10 l26 -10 0 -799 c0 -719 2 -799 16 -805 9 -3 220 -6 470 -6 l454 0 0
2014 0 2014 -25 6 c-14 4 -25 11 -25 16 0 6 -147 10 -405 10 -263 0 -405 -3
-405 -10 0 -5 -8 -10 -18 -10 -10 0 -28 -11 -40 -23 l-22 -24 0 -768 c1 -667
-1 -770 -14 -777 -8 -4 -371 -7 -808 -6 l-793 3 -3 783 -2 783 -30 17 c-16 9
-30 20 -30 25 0 4 -191 7 -425 7 -354 0 -425 -2 -425 -14z"/>
</g>
</svg>
